{
  "accessors": [
    {
      "bufferView": 2,
      "componentType": 5126,
      "count": 65532,
      "max": [
        1.3873189687728882,
        1.4679497480392456,
        1.4755746126174927
      ],
      "min": [
        -1.4804211854934692,
        -1.5050121545791626,
        -1.4923698902130127
      ],
      "type": "VEC3"
    },
    {
      "bufferView": 2,
      "byteOffset": 786384,
      "componentType": 5126,
      "count": 65532,
      "max": [
        0.9999845027923584,
        0.99996280670166016,
        0.99999058246612549
      ],
      "min": [
        -0.99997854232788086,
        -0.99999916553497314,
        -0.99999892711639404
      ],
      "type": "VEC3"
    },
    {
      "bufferView": 1,
      "componentType": 5126,
      "count": 65532,
      "max": [
        0.98462170362472534,
        0.47238212823867798
      ],
      "min": [
        0.024739563465118408,
        0
      ],
      "type": "VEC2"
    },
    {
      "bufferView": 0,
      "componentType": 5125,
      "count": 330900,
      "max": [
        65531
      ],
      "min": [
        0
      ],
      "type": "SCALAR"
    },
    {
      "bufferView": 2,
      "byteOffset": 1572768,
      "componentType": 5126,
      "count": 35237,
      "max": [
        1.5066533088684082,
        1.4932001829147339,
        1.5161334276199341
      ],
      "min": [
        -1.4564673900604248,
        -1.4814763069152832,
        -1.507097601890564
      ],
      "type": "VEC3"
    },
    {
      "bufferView": 2,
      "byteOffset": 1995612,
      "componentType": 5126,
      "count": 35237,
      "max": [
        0.99998927116394043,
        0.99999403953552246,
        0.99983608722686768
      ],
      "min": [
        -0.9997934103012085,
        -0.9999845027923584,
        -0.99999165534973145
      ],
      "type": "VEC3"
    },
    {
      "bufferView": 1,
      "byteOffset": 524256,
      "componentType": 5126,
      "count": 35237,
      "max": [
        0.96811974048614502,
        0.46254080533981323
      ],
      "min": [
        0.015378381125628948,
        0
      ],
      "type": "VEC2"
    },
    {
      "bufferView": 0,
      "byteOffset": 1323600,
      "componentType": 5125,
      "count": 175980,
      "max": [
        35236
      ],
      "min": [
        0
      ],
      "type": "SCALAR"
    }
  ],
  "asset": {
    "extras": {
      "author": "cleisonrodrigues (https://sketchfab.com/cleisonctga)",
      "license": "CC-BY-4.0 (http://creativecommons.org/licenses/by/4.0/)",
      "source": "https://sketchfab.com/3d-models/coronavirus-adf9a3ff3fe74d3fbf46b61c2ebf67ff",
      "title": "Coronavirus"
    },
    "generator": "Sketchfab-8.12.1",
    "version": "2.0"
  },
  "bufferViews": [
    {
      "buffer": 0,
      "byteLength": 2027520,
      "byteOffset": 0,
      "name": "floatBufferViews",
      "target": 34963
    },
    {
      "buffer": 0,
      "byteLength": 806152,
      "byteOffset": 2027520,
      "byteStride": 8,
      "name": "floatBufferViews",
      "target": 34962
    },
    {
      "buffer": 0,
      "byteLength": 2418456,
      "byteOffset": 2833672,
      "byteStride": 12,
      "name": "floatBufferViews",
      "target": 34962
    }
  ],
  "buffers": [
    {
      "byteLength": 5252128,
      "uri": "scene.bin"
    }
  ],
  "materials": [
    {
      "doubleSided": true,
      "emissiveFactor": [
        0,
        0,
        0
      ],
      "name": "Material.001",
      "pbrMetallicRoughness": {
        "baseColorFactor": [
          1,
          0.11962991858669911,
          0.11962991858669911,
          1
        ],
        "metallicFactor": 0.87366615853658536,
        "roughnessFactor": 0.43464176829268292
      }
    }
  ],
  "meshes": [
    {
      "name": "Icosphere_Material.001_0",
      "primitives": [
        {
          "attributes": {
            "NORMAL": 1,
            "POSITION": 0,
            "TEXCOORD_0": 2
          },
          "indices": 3,
          "material": 0,
          "mode": 4
        }
      ]
    },
    {
      "name": "Icosphere_Material.001_0",
      "primitives": [
        {
          "attributes": {
            "NORMAL": 5,
            "POSITION": 4,
            "TEXCOORD_0": 6
          },
          "indices": 7,
          "material": 0,
          "mode": 4
        }
      ]
    }
  ],
  "nodes": [
    {
      "children": [
        1
      ],
      "name": "RootNode (gltf orientation matrix)",
      "rotation": [
        -0.70710678118654746,
        -0,
        -0,
        0.70710678118654757
      ]
    },
    {
      "children": [
        2
      ],
      "name": "RootNode (model correction matrix)"
    },
    {
      "children": [
        3
      ],
      "matrix": [
        1,
        0,
        0,
        0,
        0,
        0,
        1,
        0,
        0,
        -1,
        0,
        0,
        0,
        0,
        0,
        1
      ],
      "name": "4b60f8d577df4f7585a85683c791557d.fbx"
    },
    {
      "children": [
        4
      ],
      "name": "RootNode"
    },
    {
      "children": [
        5,
        6
      ],
      "matrix": [
        826.74676513671875,
        0,
        0,
        0,
        0,
        -0.00013469414466107309,
        -826.74676513670784,
        0,
        0,
        826.74676513670784,
        -0.00013469414466107309,
        0,
        0,
        434.04971313476562,
        403.18206787109375,
        1
      ],
      "name": "Icosphere"
    },
    {
      "mesh": 0,
      "name": "Icosphere_Material.001_0"
    },
    {
      "mesh": 1,
      "name": "Icosphere_Material.001_0"
    }
  ],
  "scene": 0,
  "scenes": [
    {
      "name": "OSG_Scene",
      "nodes": [
        0
      ]
    }
  ]
}

