{
  "accessors": [
    {
      "bufferView": 2,
      "componentType": 5126,
      "count": 65532,
      "max": [
        1.0503787994384766,
        1.4240057468414307,
        1.4492096900939941
      ],
      "min": [
        -1.4323276281356812,
        -1.4169167280197144,
        -1.4663001298904419
      ],
      "type": "VEC3"
    },
    {
      "bufferView": 2,
      "byteOffset": 786384,
      "componentType": 5126,
      "count": 65532,
      "max": [
        0.99978911876678467,
        0.99997115135192871,
        0.99976074695587158
      ],
      "min": [
        -0.9999396800994873,
        -0.99997711181640625,
        -1
      ],
      "type": "VEC3"
    },
    {
      "bufferView": 1,
      "componentType": 5126,
      "count": 65532,
      "max": [
        0.92810040712356567,
        0.42556753754615784
      ],
      "min": [
        0.024739563465118408,
        0
      ],
      "type": "VEC2"
    },
    {
      "bufferView": 0,
      "componentType": 5125,
      "count": 350793,
      "max": [
        65531
      ],
      "min": [
        0
      ],
      "type": "SCALAR"
    },
    {
      "bufferView": 2,
      "byteOffset": 1572768,
      "componentType": 5126,
      "count": 65532,
      "max": [
        1.1752678155899048,
        1.3530619144439697,
        1.4484477043151855
      ],
      "min": [
        -1.4748094081878662,
        -1.3342695236206055,
        -0.61714911460876465
      ],
      "type": "VEC3"
    },
    {
      "bufferView": 2,
      "byteOffset": 2359152,
      "componentType": 5126,
      "count": 65532,
      "max": [
        0.99999785423278809,
        0.99999666213989258,
        0.99993407726287842
      ],
      "min": [
        -0.99997508525848389,
        -0.99979269504547119,
        -0.99984586238861084
      ],
      "type": "VEC3"
    },
    {
      "bufferView": 1,
      "byteOffset": 524256,
      "componentType": 5126,
      "count": 65532,
      "max": [
        0.98462170362472534,
        0.47238212823867798
      ],
      "min": [
        0.13636350631713867,
        0.1212737038731575
      ],
      "type": "VEC2"
    },
    {
      "bufferView": 0,
      "byteOffset": 1403172,
      "componentType": 5125,
      "count": 353049,
      "max": [
        65531
      ],
      "min": [
        0
      ],
      "type": "SCALAR"
    },
    {
      "bufferView": 2,
      "byteOffset": 3145536,
      "componentType": 5126,
      "count": 65532,
      "max": [
        1.1110551357269287,
        1.192192554473877,
        1.4468015432357788
      ],
      "min": [
        -1.4821147918701172,
        -1.4169167280197144,
        -0.57755625247955322
      ],
      "type": "VEC3"
    },
    {
      "bufferView": 2,
      "byteOffset": 3931920,
      "componentType": 5126,
      "count": 65532,
      "max": [
        0.99952590465545654,
        0.99998259544372559,
        0.99996292591094971
      ],
      "min": [
        -0.99999654293060303,
        -0.9999537467956543,
        -0.99943661689758301
      ],
      "type": "VEC3"
    },
    {
      "bufferView": 1,
      "byteOffset": 1048512,
      "componentType": 5126,
      "count": 65532,
      "max": [
        0.98206686973571777,
        0.47238212823867798
      ],
      "min": [
        0.089283689856529236,
        0.17215451598167419
      ],
      "type": "VEC2"
    },
    {
      "bufferView": 0,
      "byteOffset": 2815368,
      "componentType": 5125,
      "count": 354510,
      "max": [
        65531
      ],
      "min": [
        0
      ],
      "type": "SCALAR"
    },
    {
      "bufferView": 2,
      "byteOffset": 4718304,
      "componentType": 5126,
      "count": 65532,
      "max": [
        1.4560267925262451,
        1.3958749771118164,
        0.82004153728485107
      ],
      "min": [
        -1.4336701631546021,
        -1.4537014961242676,
        -1.4993665218353271
      ],
      "type": "VEC3"
    },
    {
      "bufferView": 2,
      "byteOffset": 5504688,
      "componentType": 5126,
      "count": 65532,
      "max": [
        0.99999821186065674,
        0.99995839595794678,
        0.99997830390930176
      ],
      "min": [
        -0.99992823600769043,
        -0.99997055530548096,
        -0.99995601177215576
      ],
      "type": "VEC3"
    },
    {
      "bufferView": 1,
      "byteOffset": 1572768,
      "componentType": 5126,
      "count": 65532,
      "max": [
        0.95176035165786743,
        0.34155747294425964
      ],
      "min": [
        0.015378381125628948,
        0
      ],
      "type": "VEC2"
    },
    {
      "bufferView": 0,
      "byteOffset": 4233408,
      "componentType": 5125,
      "count": 354303,
      "max": [
        65531
      ],
      "min": [
        0
      ],
      "type": "SCALAR"
    },
    {
      "bufferView": 2,
      "byteOffset": 6291072,
      "componentType": 5126,
      "count": 57466,
      "max": [
        1.4566444158554077,
        1.4244217872619629,
        1.4896833896636963
      ],
      "min": [
        -1.4487142562866211,
        -1.4413812160491943,
        -1.3863354921340942
      ],
      "type": "VEC3"
    },
    {
      "bufferView": 2,
      "byteOffset": 6980664,
      "componentType": 5126,
      "count": 57466,
      "max": [
        0.99995386600494385,
        0.99999487400054932,
        0.99990212917327881
      ],
      "min": [
        -0.99943077564239502,
        -0.99999582767486572,
        -0.99997949600219727
      ],
      "type": "VEC3"
    },
    {
      "bufferView": 1,
      "byteOffset": 2097024,
      "componentType": 5126,
      "count": 57466,
      "max": [
        0.94315505027770996,
        0.46254080533981323
      ],
      "min": [
        0.018276931717991829,
        0
      ],
      "type": "VEC2"
    },
    {
      "bufferView": 0,
      "byteOffset": 5650620,
      "componentType": 5125,
      "count": 310737,
      "max": [
        57465
      ],
      "min": [
        0
      ],
      "type": "SCALAR"
    }
  ],
  "asset": {
    "extras": {
      "author": "asimhero93 (https://sketchfab.com/asimhero93)",
      "license": "CC-BY-4.0 (http://creativecommons.org/licenses/by/4.0/)",
      "source": "https://sketchfab.com/3d-models/coronavirus-model-b74bf64ba5c24b83b0dfffc944d8d20d",
      "title": "Coronavirus Model"
    },
    "generator": "Sketchfab-8.42.0",
    "version": "2.0"
  },
  "bufferViews": [
    {
      "buffer": 0,
      "byteLength": 6893568,
      "byteOffset": 0,
      "name": "floatBufferViews",
      "target": 34963
    },
    {
      "buffer": 0,
      "byteLength": 2556752,
      "byteOffset": 6893568,
      "byteStride": 8,
      "name": "floatBufferViews",
      "target": 34962
    },
    {
      "buffer": 0,
      "byteLength": 7670256,
      "byteOffset": 9450320,
      "byteStride": 12,
      "name": "floatBufferViews",
      "target": 34962
    }
  ],
  "buffers": [
    {
      "byteLength": 17120576,
      "uri": "scene.bin"
    }
  ],
  "images": [
    {
      "uri": "textures/Material.005_baseColor.png"
    }
  ],
  "materials": [
    {
      "doubleSided": true,
      "emissiveFactor": [
        0,
        0,
        0
      ],
      "name": "Material.005",
      "pbrMetallicRoughness": {
        "baseColorFactor": [
          1,
          1,
          1,
          1
        ],
        "baseColorTexture": {
          "index": 0,
          "texCoord": 0
        },
        "metallicFactor": 0,
        "roughnessFactor": 0.82111456180001685
      }
    }
  ],
  "meshes": [
    {
      "name": "Icosphere.001_Material.005_0",
      "primitives": [
        {
          "attributes": {
            "NORMAL": 1,
            "POSITION": 0,
            "TEXCOORD_0": 2
          },
          "indices": 3,
          "material": 0,
          "mode": 4
        }
      ]
    },
    {
      "name": "Icosphere.001_Material.005_0",
      "primitives": [
        {
          "attributes": {
            "NORMAL": 5,
            "POSITION": 4,
            "TEXCOORD_0": 6
          },
          "indices": 7,
          "material": 0,
          "mode": 4
        }
      ]
    },
    {
      "name": "Icosphere.001_Material.005_0",
      "primitives": [
        {
          "attributes": {
            "NORMAL": 9,
            "POSITION": 8,
            "TEXCOORD_0": 10
          },
          "indices": 11,
          "material": 0,
          "mode": 4
        }
      ]
    },
    {
      "name": "Icosphere.001_Material.005_0",
      "primitives": [
        {
          "attributes": {
            "NORMAL": 13,
            "POSITION": 12,
            "TEXCOORD_0": 14
          },
          "indices": 15,
          "material": 0,
          "mode": 4
        }
      ]
    },
    {
      "name": "Icosphere.001_Material.005_0",
      "primitives": [
        {
          "attributes": {
            "NORMAL": 17,
            "POSITION": 16,
            "TEXCOORD_0": 18
          },
          "indices": 19,
          "material": 0,
          "mode": 4
        }
      ]
    }
  ],
  "nodes": [
    {
      "children": [
        1
      ],
      "name": "RootNode (gltf orientation matrix)",
      "rotation": [
        -0.70710678118654746,
        -0,
        -0,
        0.70710678118654757
      ]
    },
    {
      "children": [
        2
      ],
      "name": "RootNode (model correction matrix)"
    },
    {
      "children": [
        3
      ],
      "matrix": [
        1,
        0,
        0,
        0,
        0,
        0,
        1,
        0,
        0,
        -1,
        0,
        0,
        0,
        0,
        0,
        1
      ],
      "name": "e07aeaa5d30a4b37880fa1e12e9bbd30.fbx"
    },
    {
      "children": [
        4
      ],
      "name": "RootNode"
    },
    {
      "children": [
        5,
        6,
        7,
        8,
        9
      ],
      "matrix": [
        183.36193906314136,
        285.1342507571639,
        266.19192501882725,
        0,
        151.43146589787352,
        219.03333455674058,
        -338.93091593783822,
        0,
        -359.48320056645741,
        237.70596374577761,
        -6.9971136672923526,
        0,
        381.04522705078125,
        380.56646728515625,
        809.178466796875,
        1
      ],
      "name": "Icosphere.001"
    },
    {
      "mesh": 0,
      "name": "Icosphere.001_Material.005_0"
    },
    {
      "mesh": 1,
      "name": "Icosphere.001_Material.005_0"
    },
    {
      "mesh": 2,
      "name": "Icosphere.001_Material.005_0"
    },
    {
      "mesh": 3,
      "name": "Icosphere.001_Material.005_0"
    },
    {
      "mesh": 4,
      "name": "Icosphere.001_Material.005_0"
    }
  ],
  "samplers": [
    {
      "magFilter": 9729,
      "minFilter": 9987,
      "wrapS": 10497,
      "wrapT": 10497
    }
  ],
  "scene": 0,
  "scenes": [
    {
      "name": "OSG_Scene",
      "nodes": [
        0
      ]
    }
  ],
  "textures": [
    {
      "sampler": 0,
      "source": 0
    }
  ]
}

